<svg version="1.1" viewBox="0.0 0.0 353.0866141732283 345.63517060367457" fill="none" stroke="none" stroke-linecap="square" stroke-miterlimit="10" xmlns:xlink="http://www.w3.org/1999/xlink" xmlns="http://www.w3.org/2000/svg"><clipPath id="p.0"><path d="m0 0l353.0866 0l0 345.63516l-353.0866 0l0 -345.63516z" clip-rule="nonzero"/></clipPath><g clip-path="url(#p.0)"><path fill="#000000" fill-opacity="0.0" d="m0 0l353.0866 0l0 345.63516l-353.0866 0z" fill-rule="evenodd"/><path fill="#b7b7b7" d="m117.49606 77.91076l160.28348 95.79528l-160.28348 95.79527z" fill-rule="evenodd"/><path fill="#000000" fill-opacity="0.0" d="m12.937008 173.70604l0 0c0 -88.30468 73.24904 -159.88977 163.6063 -159.88977l0 0c43.391098 0 85.005005 16.84548 115.68713 46.830627c30.682129 29.98515 47.91916 70.65373 47.91916 113.05914l0 0c0 88.30467 -73.24902 159.88976 -163.6063 159.88976l0 0c-90.35726 0 -163.6063 -71.58508 -163.6063 -159.88976z" fill-rule="evenodd"/><path stroke="#b7b7b7" stroke-width="24.0" stroke-linejoin="round" stroke-linecap="butt" d="m12.937008 173.70604l0 0c0 -88.30468 73.24904 -159.88977 163.6063 -159.88977l0 0c43.391098 0 85.005005 16.84548 115.68713 46.830627c30.682129 29.98515 47.91916 70.65373 47.91916 113.05914l0 0c0 88.30467 -73.24902 159.88976 -163.6063 159.88976l0 0c-90.35726 0 -163.6063 -71.58508 -163.6063 -159.88976z" fill-rule="evenodd"/></g></svg>