<svg version="1.1" viewBox="0.0 0.0 439.51181102362204 384.4173228346457" fill="none" stroke="none" stroke-linecap="square" stroke-miterlimit="10" xmlns:xlink="http://www.w3.org/1999/xlink" xmlns="http://www.w3.org/2000/svg"><clipPath id="p.0"><path d="m0 0l439.5118 0l0 384.41733l-439.5118 0l0 -384.41733z" clip-rule="nonzero"/></clipPath><g clip-path="url(#p.0)"><path fill="#000000" fill-opacity="0.0" d="m0 0l439.5118 0l0 384.41733l-439.5118 0z" fill-rule="evenodd"/><path fill="#000000" fill-opacity="0.0" d="m81.64794 212.03734l0 0c-8.883049 -60.662216 30.426414 -122.96897 93.96458 -148.93686c63.538177 -25.967892 133.6828 -8.394749 167.67236 42.0065l-121.74449 76.971756z" fill-rule="evenodd"/><path fill="#000000" fill-opacity="0.0" d="m81.64794 212.03734l0 0c-8.883049 -60.662216 30.426414 -122.96897 93.96458 -148.93686c63.538177 -25.967892 133.6828 -8.394749 167.67236 42.0065" fill-rule="evenodd"/><path stroke="#666666" stroke-width="4.0" stroke-linejoin="round" stroke-linecap="butt" d="m81.64794 212.03734l0 0c-8.883049 -60.662216 30.426414 -122.96897 93.96458 -148.93686c63.538177 -25.967892 133.6828 -8.394749 167.67236 42.0065" fill-rule="evenodd"/><path fill="#000000" fill-opacity="0.0" d="m361.807 148.6736c14.3220215 63.04332 -22.496796 130.11403 -87.00601 158.49394c-64.50926 28.379913 -137.74765 9.727264 -173.06873 -44.07782l121.67204 -76.89812z" fill-rule="evenodd"/><path fill="#000000" fill-opacity="0.0" d="m361.807 148.6736c14.3220215 63.04332 -22.496796 130.11403 -87.00601 158.49394c-64.50926 28.379913 -137.74765 9.727264 -173.06873 -44.07782" fill-rule="evenodd"/><path stroke="#666666" stroke-width="4.0" stroke-linejoin="round" stroke-linecap="butt" d="m361.807 148.6736c14.3220215 63.04332 -22.496796 130.11403 -87.00601 158.49394c-64.50926 28.379913 -137.74765 9.727264 -173.06873 -44.07782" fill-rule="evenodd"/><path fill="#000000" fill-opacity="0.0" d="m112.43569 68.98425l256.9134 0l0 220.37796l-256.9134 0z" fill-rule="evenodd"/><path fill="#666666" d="m179.68146 136.428l11.5625 0l-12.578125 34.453125q10.0 -16.71875 19.875 -25.03125q9.890625 -8.328125 20.125 -8.328125q4.765625 0 8.203125 1.796875q3.4375 1.796875 5.625 4.921875q2.1875 3.125 3.203125 7.390625q1.015625 4.25 1.015625 9.171875q0 5.234375 -1.0625 11.453125q-1.046875 6.203125 -3.078125 12.375q-3.984375 12.1875 -10.359375 21.25q-6.359375 9.0625 -13.90625 15.125q-7.53125 6.046875 -15.578125 9.0625q-8.046875 3.0 -15.390625 3.0q-3.984375 0 -6.84375 -0.9375q-2.84375 -0.9375 -4.640625 -2.96875q-1.796875 -2.03125 -2.734375 -5.234375q-0.9375 -3.203125 -1.015625 -7.65625l-20.546875 56.48436l-11.5625 0l49.6875 -136.32811zm36.328125 5.0q-4.140625 0 -8.5625 2.390625q-4.40625 2.375 -8.78125 6.4375q-4.375 4.0625 -8.5625 9.453125q-4.171875 5.390625 -7.921875 11.484375q-3.75 6.09375 -6.921875 12.5q-3.15625 6.40625 -5.421875 12.46875q-2.265625 6.046875 -3.5625 11.4375q-1.28125 5.390625 -1.28125 9.375q0 2.734375 0.625 5.125q0.625 2.375 1.984375 4.140625q1.375 1.75 3.4375 2.734375q2.078125 0.96875 4.96875 0.96875q3.75 0 9.015625 -2.0625q5.28125 -2.078125 11.09375 -7.15625q5.828125 -5.078125 11.71875 -13.671875q5.90625 -8.59375 10.90625 -21.640625q1.71875 -4.453125 3.046875 -8.828125q1.328125 -4.375 2.265625 -8.390625q0.9375 -4.03125 1.4375 -7.546875q0.515625 -3.515625 0.515625 -6.25q0 -6.015625 -2.421875 -9.484375q-2.421875 -3.484375 -7.578125 -3.484375zm36.328125 -2.421875l22.8125 0l7.421875 -20.46875l11.5625 0l-7.421875 20.46875l23.4375 0l0 3.125l-24.609375 0l-18.75 51.5625q-1.09375 3.046875 -2.15625 6.25q-1.046875 3.203125 -1.875 6.296875q-0.8125 3.078125 -1.328125 5.9375q-0.5 2.84375 -0.5 5.1875q0 5.390625 2.921875 8.59375q2.9375 3.203125 8.875 3.203125q5.78125 0 11.25 -2.1875q5.46875 -2.1875 10.78125 -6.71875q5.3125 -4.53125 10.546875 -11.4375q5.234375 -6.921875 10.546875 -16.375l4.0625 -7.1875l2.109375 1.484375l-4.0625 7.1875q-6.171875 10.9375 -11.953125 18.40625q-5.78125 7.453125 -11.453125 12.0625q-5.65625 4.609375 -11.484375 6.640625q-5.8125 2.03125 -12.0625 2.03125q-4.765625 0 -8.4375 -1.453125q-3.671875 -1.4375 -6.125 -4.09375q-2.46875 -2.65625 -3.75 -6.40625q-1.296875 -3.75 -1.296875 -8.359375q0 -4.0625 0.9375 -8.90625q0.9375 -4.84375 2.890625 -10.15625l18.75 -51.5625l-21.640625 0l0 -3.125z" fill-rule="nonzero"/><path fill="#000000" fill-opacity="0.0" d="m339.8084 133.3727l92.66141 -41.32283" fill-rule="evenodd"/><path stroke="#666666" stroke-width="4.0" stroke-linejoin="round" stroke-linecap="butt" d="m339.8084 133.3727l70.74225 -31.54786" fill-rule="evenodd"/><path stroke="#666666" stroke-width="4.0" stroke-linecap="butt" d="m413.24158 107.85893l13.887634 -13.427391l-19.2695 1.3591919z" fill-rule="evenodd"/><path fill="#000000" fill-opacity="0.0" d="m45.132565 254.2664l-37.133858 -15.023621" fill-rule="evenodd"/><path stroke="#666666" stroke-width="4.0" stroke-linejoin="round" stroke-linecap="butt" d="m45.132565 254.2664l-37.133858 -15.023621" fill-rule="evenodd"/><path fill="#000000" fill-opacity="0.0" d="m71.20042 243.21869l-37.133858 -15.023621" fill-rule="evenodd"/><path stroke="#666666" stroke-width="4.0" stroke-linejoin="round" stroke-linecap="butt" d="m71.20042 243.21869l-37.133858 -15.023621" fill-rule="evenodd"/><path fill="#000000" fill-opacity="0.0" d="m30.858555 289.3624l14.204723 -35.181107" fill-rule="evenodd"/><path stroke="#666666" stroke-width="4.0" stroke-linejoin="round" stroke-linecap="butt" d="m30.858555 289.3624l14.204723 -35.181107" fill-rule="evenodd"/><path fill="#000000" fill-opacity="0.0" d="m56.535038 279.28177l14.204723 -35.181107" fill-rule="evenodd"/><path stroke="#666666" stroke-width="4.0" stroke-linejoin="round" stroke-linecap="butt" d="m56.535038 279.28177l14.204723 -35.181107" fill-rule="evenodd"/><path fill="#000000" fill-opacity="0.0" d="m14.2662325 267.25793l109.51181 -46.89763" fill-rule="evenodd"/><path stroke="#666666" stroke-width="4.0" stroke-linejoin="round" stroke-linecap="butt" d="m14.2662325 267.25793l109.51181 -46.89763" fill-rule="evenodd"/><path fill="#000000" fill-opacity="0.0" d="m100.25879 201.34927c-1.14711 -49.900024 26.82795 -96.59917 71.72876 -119.73778c44.900803 -23.138603 98.588165 -18.522324 137.65573 11.836258l-80.59888 102.03519z" fill-rule="evenodd"/><path fill="#000000" fill-opacity="0.0" d="m100.25879 201.34927c-1.14711 -49.900024 26.82795 -96.59917 71.72876 -119.73778c44.900803 -23.138603 98.588165 -18.522324 137.65573 11.836258" fill-rule="evenodd"/><path stroke="#666666" stroke-width="4.0" stroke-linejoin="round" stroke-linecap="butt" d="m100.25879 201.34927c-1.14711 -49.900024 26.82795 -96.59917 71.72876 -119.73778c44.900803 -23.138603 98.588165 -18.522324 137.65573 11.836258" fill-rule="evenodd"/><path fill="#000000" fill-opacity="0.0" d="m346.68692 181.98077l0 0c-3.3316956 45.151123 -29.274872 85.542755 -68.70755 106.97266c-39.43268 21.429901 -86.83424 20.897858 -125.53769 -1.4090576l64.691895 -114.63098z" fill-rule="evenodd"/><path fill="#000000" fill-opacity="0.0" d="m346.68692 181.98077l0 0c-3.3316956 45.151123 -29.274872 85.542755 -68.70755 106.97266c-39.43268 21.429901 -86.83424 20.897858 -125.53769 -1.4090576" fill-rule="evenodd"/><path stroke="#666666" stroke-width="4.0" stroke-linejoin="round" stroke-linecap="butt" d="m346.68692 181.98077l0 0c-3.3316956 45.151123 -29.274872 85.542755 -68.70755 106.97266c-39.43268 21.429901 -86.83424 20.897858 -125.53769 -1.4090576" fill-rule="evenodd"/></g></svg>